<?xml version="1.0" encoding="UTF-8" standalone="no"?>
<!DOCTYPE svg PUBLIC "-//W3C//DTD SVG 1.1//EN" "http://www.w3.org/Graphics/SVG/1.1/DTD/svg11.dtd">
<svg width="100%" height="100%" viewBox="0 0 245 180" version="1.1"
  xmlns="http://www.w3.org/2000/svg"
  xmlns:xlink="http://www.w3.org/1999/xlink" xml:space="preserve"
  xmlns:serif="http://www.serif.com/" style="fill-rule:evenodd;clip-rule:evenodd;stroke-linejoin:round;stroke-miterlimit:2;">
  <g>
    <path d="M76.711,173.684L76.184,172.632C75.132,170.526 75.132,168.421 75.658,165.789L18.816,165.789L103.026,16.316L138.289,80L149.868,71.579L114.605,7.895C114.079,6.842 109.868,0.526 103.026,0.526C99.868,0.526 95.132,1.579 91.447,8.421L6.184,159.474C5.658,161.053 1.974,167.895 5.132,173.684C7.237,176.842 10.395,180 17.763,180L89.342,180C81.974,180 78.289,176.842 76.711,173.684Z" style="fill:rgb(0,197,142);"/>
    <path d="M238.816,160L170.395,36.842C169.342,35.789 165.658,28.947 158.816,28.947C155.658,28.947 150.921,30.526 147.237,36.842L138.289,51.579L138.289,80L158.816,44.737L226.711,165.789L200.921,165.789C201.353,168.295 200.984,170.874 199.868,173.158L199.342,173.684C196.184,179.474 188.289,180 187.237,180L227.237,180C228.816,180 236.184,179.474 239.868,173.684C241.447,171.053 242.5,166.316 238.816,160Z" style="fill:rgb(16,135,117);"/>
    <path d="M201.447,173.684L201.447,173.158L201.974,172.105C202.5,170 203.026,167.895 202.5,165.789L200.395,159.474L146.711,65.789L138.816,51.579L138.289,51.579L130.395,65.789L76.711,159.474L74.605,165.789C74.096,168.465 74.465,171.235 75.658,173.684C77.763,176.842 80.921,180 88.289,180L188.289,180C189.868,180 197.763,179.474 201.447,173.684ZM138.289,80L187.237,165.789L89.342,165.789L138.289,80Z" style="fill:rgb(47,73,94);fill-rule:nonzero;"/>
  </g>
</svg>
